<svg xmlns="http://www.w3.org/2000/svg" viewBox="0 0 1200 720" role="img" aria-labelledby="title">
  <title>Bootstrap hero art</title>
  <defs>
    <linearGradient id="bg" x1="0" y1="0" x2="1" y2="1">
      <stop offset="0%" stop-color="#1d2b56"/>
      <stop offset="100%" stop-color="#12213d"/>
    </linearGradient>
  </defs>
  <rect width="1200" height="720" fill="url(#bg)"/>
  <rect x="130" y="90" width="940" height="540" rx="24" fill="#16274b" stroke="#4f76c7"/>
  <rect x="190" y="150" width="820" height="90" rx="16" fill="#203a70"/>
  <rect x="220" y="180" width="320" height="30" rx="15" fill="#89a7e8"/>
  <g fill="#2a4b8e">
    <rect x="190" y="280" width="250" height="300" rx="16"/>
    <rect x="475" y="280" width="250" height="300" rx="16"/>
    <rect x="760" y="280" width="250" height="300" rx="16"/>
  </g>
  <g fill="#94b2ee">
    <rect x="225" y="330" width="180" height="18" rx="9"/>
    <rect x="510" y="330" width="180" height="18" rx="9"/>
    <rect x="795" y="330" width="180" height="18" rx="9"/>
  </g>
  <g fill="#3f68bf">
    <rect x="225" y="510" width="110" height="38" rx="19"/>
    <rect x="510" y="510" width="110" height="38" rx="19"/>
    <rect x="795" y="510" width="110" height="38" rx="19"/>
  </g>
</svg>
