<svg xmlns="http://www.w3.org/2000/svg" viewBox="0 0 1200 720" role="img" aria-labelledby="title">
  <title>ARC default hero art</title>
  <defs>
    <linearGradient id="bg" x1="0" y1="0" x2="1" y2="1">
      <stop offset="0%" stop-color="#111827"/>
      <stop offset="100%" stop-color="#1f2937"/>
    </linearGradient>
    <linearGradient id="band" x1="0" y1="0" x2="1" y2="0">
      <stop offset="0%" stop-color="#3b82f6" stop-opacity="0.85"/>
      <stop offset="100%" stop-color="#f59e0b" stop-opacity="0.85"/>
    </linearGradient>
  </defs>
  <rect width="1200" height="720" fill="url(#bg)"/>
  <rect x="80" y="70" width="1040" height="580" rx="32" fill="#0b1220" stroke="#374151"/>
  <rect x="130" y="130" width="940" height="110" rx="20" fill="#111827"/>
  <rect x="130" y="290" width="420" height="300" rx="20" fill="#101827"/>
  <rect x="580" y="290" width="490" height="140" rx="20" fill="#101827"/>
  <rect x="580" y="450" width="490" height="140" rx="20" fill="#101827"/>
  <rect x="170" y="170" width="420" height="28" rx="14" fill="#334155"/>
  <rect x="170" y="330" width="260" height="24" rx="12" fill="#334155"/>
  <rect x="170" y="380" width="320" height="24" rx="12" fill="#334155"/>
  <rect x="620" y="330" width="380" height="26" rx="13" fill="#374151"/>
  <rect x="620" y="490" width="340" height="26" rx="13" fill="#374151"/>
  <rect x="170" y="520" width="180" height="44" rx="22" fill="url(#band)"/>
</svg>
