<svg xmlns="http://www.w3.org/2000/svg" viewBox="0 0 1200 720" role="img" aria-labelledby="title">
  <title>Popie hero art</title>
  <defs>
    <linearGradient id="bg" x1="0" y1="0" x2="1" y2="1">
      <stop offset="0%" stop-color="#330022"/>
      <stop offset="100%" stop-color="#0f1026"/>
    </linearGradient>
    <linearGradient id="stage" x1="0" y1="0" x2="1" y2="0">
      <stop offset="0%" stop-color="#ff2d95"/>
      <stop offset="50%" stop-color="#ff8a00"/>
      <stop offset="100%" stop-color="#ffd600"/>
    </linearGradient>
  </defs>
  <rect width="1200" height="720" fill="url(#bg)"/>
  <rect x="90" y="90" width="1020" height="540" rx="40" fill="#190a1f" stroke="#ff5ac8" stroke-opacity="0.55"/>
  <rect x="130" y="470" width="940" height="100" rx="22" fill="url(#stage)"/>
  <g fill="#ff5ac8">
    <circle cx="250" cy="240" r="34"/><circle cx="360" cy="190" r="20"/><circle cx="930" cy="220" r="28"/>
  </g>
  <g fill="#ffd600">
    <polygon points="590,170 610,220 664,220 620,253 637,304 590,272 543,304 560,253 516,220 570,220"/>
    <polygon points="820,150 833,180 866,180 839,200 849,232 820,212 791,232 801,200 774,180 807,180"/>
  </g>
  <g fill="#ff9ecf">
    <rect x="190" y="320" width="190" height="26" rx="13"/>
    <rect x="190" y="365" width="250" height="22" rx="11"/>
    <rect x="720" y="320" width="240" height="26" rx="13"/>
    <rect x="720" y="365" width="200" height="22" rx="11"/>
  </g>
</svg>
