<svg xmlns="http://www.w3.org/2000/svg" viewBox="0 0 1200 720" role="img" aria-labelledby="title">
  <title>Breeze hero art</title>
  <defs>
    <linearGradient id="bg" x1="0" y1="0" x2="1" y2="1">
      <stop offset="0%" stop-color="#0d1a2f"/>
      <stop offset="100%" stop-color="#12233f"/>
    </linearGradient>
    <linearGradient id="wave" x1="0" y1="0" x2="1" y2="0">
      <stop offset="0%" stop-color="#38bdf8"/>
      <stop offset="100%" stop-color="#818cf8"/>
    </linearGradient>
  </defs>
  <rect width="1200" height="720" fill="url(#bg)"/>
  <path d="M0 420 C140 360, 260 480, 400 420 C540 360, 660 480, 800 420 C940 360, 1060 480, 1200 420 V720 H0 Z" fill="#1e3a8a" fill-opacity="0.35"/>
  <path d="M0 470 C150 410, 300 530, 450 470 C600 410, 750 530, 900 470 C1050 410, 1150 500, 1200 485 V720 H0 Z" fill="url(#wave)" fill-opacity="0.5"/>
  <rect x="160" y="110" width="880" height="470" rx="32" fill="#0f1f38" stroke="#3b82f6" stroke-opacity="0.35"/>
  <g fill="#8cc8ff">
    <rect x="230" y="190" width="400" height="30" rx="15"/>
    <rect x="230" y="248" width="300" height="22" rx="11"/>
    <rect x="230" y="298" width="360" height="22" rx="11"/>
  </g>
  <g fill="#6ea8ff">
    <rect x="710" y="190" width="260" height="160" rx="18"/>
    <rect x="710" y="380" width="260" height="160" rx="18"/>
  </g>
</svg>
